<?xml version="1.0" encoding="UTF-8" standalone="no"?>
<svg width="50px" height="50px" viewBox="0 0 50 50" version="1.1" xmlns="http://www.w3.org/2000/svg" xmlns:xlink="http://www.w3.org/1999/xlink" xmlns:sketch="http://www.bohemiancoding.com/sketch/ns">
    <!-- Generator: Sketch 3.0.4 (8054) - http://www.bohemiancoding.com/sketch -->
    <title>arrow-right</title>
    <desc>Created with Sketch.</desc>
    <defs></defs>
    <g id="Page-1" stroke="none" stroke-width="1" fill="none" fill-rule="evenodd" sketch:type="MSPage">
        <g id="arrow-right" sketch:type="MSLayerGroup" transform="translate(25.000000, 25.000000) scale(-1, 1) translate(-25.000000, -25.000000) " fill="#000000">
            <g id="Right" sketch:type="MSShapeGroup">
                <path d="M22.6781046,14.6796569 L22.6734477,14.6859477 C22.2547386,14.3015523 21.7047386,14.0625 21.0937908,14.0625 C19.8000817,14.0625 18.75,15.1125 18.75,16.4062908 C18.75,17.0906863 19.0468954,17.7 19.5140523,18.1281863 L19.5093954,18.1344771 L27,25 L19.5093137,31.8672386 L19.5139706,31.8734477 C19.0468137,32.3 18.7499183,32.9093954 18.7499183,33.5937908 C18.7499183,34.8875817 19.7999183,35.9375817 21.0937092,35.9375817 C21.7046569,35.9375817 22.2546569,35.6985294 22.673366,35.315768 L22.6780229,35.3219771 L32.0530229,26.7281863 C32.535866,26.2828431 32.8124183,25.6578431 32.8124183,25.0000817 C32.8124183,24.3423203 32.535866,23.7172386 32.0530229,23.2719771 L22.6781046,14.6796569 L22.6781046,14.6796569 Z M25,0 C11.1937908,0 0,11.1937908 0,25 C0,38.8062092 11.1937908,50 25,50 C38.8062092,50 50,38.8062092 50,25 C50,11.1937908 38.8062092,0 25,0 L25,0 Z M25,45.3125 C13.8,45.3125 4.6875,36.2 4.6875,25 C4.6875,13.8 13.8,4.6875 25,4.6875 C36.2,4.6875 45.3125,13.8 45.3125,25 C45.3125,36.2 36.2,45.3125 25,45.3125 L25,45.3125 Z" id="Shape"></path>
            </g>
        </g>
    </g>
</svg>