<?xml version="1.0" encoding="UTF-8" standalone="no"?>
<svg width="12px" height="12px" viewBox="0 0 12 12" version="1.1" xmlns="http://www.w3.org/2000/svg" xmlns:xlink="http://www.w3.org/1999/xlink" xmlns:sketch="http://www.bohemiancoding.com/sketch/ns">
    <!-- Generator: Sketch 3.0.4 (8054) - http://www.bohemiancoding.com/sketch -->
    <title>delete30 3</title>
    <desc>Created with Sketch.</desc>
    <defs></defs>
    <g id="Page-1" stroke="none" stroke-width="1" fill="none" fill-rule="evenodd" sketch:type="MSPage">
        <g id="tasks" sketch:type="MSLayerGroup" transform="translate(-292.000000, -275.000000)" fill="#020202">
            <g id="close" transform="translate(282.000000, 267.000000)" sketch:type="MSShapeGroup">
                <g id="delete30-3" transform="translate(10.000000, 8.000000)">
                    <path d="M11.5510345,2.39193103 L7.94317241,6 L11.5510345,9.60806897 C12.0877241,10.1447586 12.0877241,11.0145517 11.5510345,11.5512414 C11.2828966,11.8193793 10.9313793,11.9536552 10.5798621,11.9536552 C10.2281379,11.9536552 9.87662069,11.8195862 9.60848276,11.5512414 L6,7.94296552 L2.39172414,11.5512414 C2.12358621,11.8193793 1.77206897,11.9536552 1.42034483,11.9536552 C1.06882759,11.9536552 0.717517241,11.8195862 0.449172414,11.5512414 C-0.0875172414,11.0147586 -0.0875172414,10.1449655 0.449172414,9.60806897 L4.05682759,6 L0.448965517,2.39193103 C-0.0877241379,1.85524138 -0.0877241379,0.985448276 0.448965517,0.448758621 C0.985448276,-0.0875172414 1.85482759,-0.0875172414 2.39151724,0.448758621 L6,4.05703448 L9.60827586,0.448758621 C10.1449655,-0.0875172414 11.0143448,-0.0875172414 11.5508276,0.448758621 C12.0877241,0.985448276 12.0877241,1.85524138 11.5510345,2.39193103 L11.5510345,2.39193103 Z" id="Shape"></path>
                </g>
            </g>
        </g>
    </g>
</svg>