<?xml version="1.0" encoding="UTF-8" standalone="no"?>
<svg width="19px" height="19px" viewBox="0 0 19 19" version="1.1" xmlns="http://www.w3.org/2000/svg" xmlns:xlink="http://www.w3.org/1999/xlink" xmlns:sketch="http://www.bohemiancoding.com/sketch/ns">
    <!-- Generator: Sketch 3.0.4 (8054) - http://www.bohemiancoding.com/sketch -->
    <title>edit26</title>
    <desc>Created with Sketch.</desc>
    <defs></defs>
    <g id="Page-1" stroke="none" stroke-width="1" fill="none" fill-rule="evenodd" sketch:type="MSPage">
        <g id="buttons" sketch:type="MSLayerGroup" transform="translate(-59.000000, -48.000000)" fill="#020202">
            <g id="edited" transform="translate(53.000000, 44.000000)" sketch:type="MSShapeGroup">
                <g id="edit26" transform="translate(7.000000, 4.000000)">
                    <path d="M17.6175529,7.06675862 L16.5860471,8.07475862 L13.7119765,5.26696552 L14.7436941,4.25896552 C15.0687529,3.94137931 15.5575059,3.90206897 15.8332235,4.17124138 L17.7073412,6.00248276 C17.9828471,6.27165517 17.9426118,6.74917241 17.6175529,7.06675862 L17.6175529,7.06675862 Z M13.2329647,5.73475862 L16.1070353,8.54275862 L9.25369412,15.2385517 C9.22214118,15.2693793 9.13489412,15.3544138 9.01249412,15.3850345 C8.99830588,15.3916552 8.98390588,15.3972414 8.96950588,15.4017931 L5.3928,16.5153103 C5.29263529,16.5463448 5.19204706,16.5264828 5.12682353,16.4625517 C5.06138824,16.3986207 5.04105882,16.3003448 5.0724,16.2026897 L6.21232941,12.7086207 C6.2172,12.6941379 6.22291765,12.680069 6.22948235,12.6666207 C6.26082353,12.5468276 6.34785882,12.4617931 6.37962353,12.4309655 L7.66757647,11.1724138 L3.31750588,11.1724138 C3.14216471,11.1724138 2.99985882,11.0335862 2.99985882,10.862069 C2.99985882,10.6905517 3.14216471,10.5517241 3.31750588,10.5517241 L8.30287059,10.5517241 L13.2329647,5.73475862 L13.2329647,5.73475862 Z M8.36957647,15.0227586 L6.60028235,13.2943448 L6.12571765,14.750069 L6.87981176,15.4868276 L8.36957647,15.0227586 L8.36957647,15.0227586 Z M13.1224235,6.85075862 C13.0207765,6.75124138 12.8558118,6.75124138 12.7541647,6.85075862 L7.41134118,12.0705517 C7.30969412,12.1698621 7.30969412,12.3310345 7.41134118,12.4305517 C7.51298824,12.5298621 7.67816471,12.5298621 7.77981176,12.4305517 L13.1224235,7.21075862 C13.2242824,7.11124138 13.2242824,6.95006897 13.1224235,6.85075862 L13.1224235,6.85075862 Z M12.7996941,16.788 C12.7996941,16.9746207 12.6444706,17.1264828 12.4534588,17.1264828 L6.14922353,17.1264828 L5.57978824,17.3037931 C5.46543529,17.3393793 5.34790588,17.3573793 5.23016471,17.3573793 C4.97964706,17.3573793 4.74670588,17.2733793 4.55611765,17.1264828 L1.28350588,17.1264828 C1.09249412,17.1264828 0.936847059,16.9748276 0.936847059,16.788 L0.936847059,2.57503448 C0.936847059,2.38841379 1.09228235,2.23655172 1.28350588,2.23655172 L2.58225882,2.23655172 L2.58225882,2.77241379 C2.58225882,2.95924138 2.73727059,3.11068966 2.92870588,3.11068966 C3.12014118,3.11068966 3.27515294,2.95924138 3.27515294,2.77241379 L3.27515294,2.23655172 L5.26658824,2.23655172 L5.26658824,2.77241379 C5.26658824,2.95924138 5.4216,3.11068966 5.61303529,3.11068966 C5.80447059,3.11068966 5.95948235,2.95924138 5.95948235,2.77241379 L5.95948235,2.23655172 L7.69129412,2.23655172 L7.69129412,2.77241379 C7.69129412,2.95924138 7.84630588,3.11068966 8.03774118,3.11068966 C8.22917647,3.11068966 8.38418824,2.95924138 8.38418824,2.77241379 L8.38418824,2.23655172 L10.2892235,2.23655172 L10.2892235,2.77241379 C10.2892235,2.95924138 10.4442353,3.11068966 10.6354588,3.11068966 C10.8268941,3.11068966 10.9821176,2.95924138 10.9821176,2.77241379 L10.9821176,2.23655172 L12.4540941,2.23655172 C12.6448941,2.23655172 12.8003294,2.38841379 12.8003294,2.57503448 L12.8003294,4.91896552 L13.1632941,4.56434483 L13.8394588,3.90372414 L13.8394588,2.57503448 C13.8394588,1.82875862 13.2179294,1.22151724 12.4540941,1.22151724 L10.9821176,1.22151724 L10.9821176,0.403655172 C10.9821176,0.216827586 10.8271059,0.0651724138 10.6354588,0.0651724138 C10.4444471,0.0651724138 10.2892235,0.21662069 10.2892235,0.403655172 L10.2892235,1.22151724 L8.38376471,1.22151724 L8.38376471,0.403655172 C8.38376471,0.216827586 8.22875294,0.0651724138 8.03731765,0.0651724138 C7.84588235,0.0651724138 7.69087059,0.21662069 7.69087059,0.403655172 L7.69087059,1.22151724 L5.95905882,1.22151724 L5.95905882,0.403655172 C5.95905882,0.216827586 5.80404706,0.0651724138 5.61261176,0.0651724138 C5.42117647,0.0651724138 5.26616471,0.21662069 5.26616471,0.403655172 L5.26616471,1.22151724 L3.27472941,1.22151724 L3.27472941,0.403655172 C3.27472941,0.216827586 3.11971765,0.0651724138 2.92828235,0.0651724138 C2.73684706,0.0651724138 2.58183529,0.21662069 2.58183529,0.403655172 L2.58183529,1.22151724 L1.28308235,1.22151724 C0.519247059,1.22151724 -0.102494118,1.82875862 -0.102494118,2.57503448 L-0.102494118,16.7877931 C-0.102494118,17.534069 0.519247059,18.1413103 1.28308235,18.1413103 L12.4532471,18.1413103 C13.2170824,18.1413103 13.8386118,17.534069 13.8386118,16.7877931 L13.8386118,11.8603448 L12.7994824,12.8757931 L12.7994824,16.788 L12.7996941,16.788 Z M10.0939765,5.27586207 L3.31750588,5.27586207 C3.14216471,5.27586207 2.99985882,5.41468966 2.99985882,5.5862069 C2.99985882,5.75772414 3.14216471,5.89655172 3.31750588,5.89655172 L10.0939765,5.89655172 C10.2693176,5.89655172 10.4116235,5.75772414 10.4116235,5.5862069 C10.4116235,5.41468966 10.2693176,5.27586207 10.0939765,5.27586207 L10.0939765,5.27586207 Z M10.0939765,7.77806897 L3.31750588,7.77806897 C3.14216471,7.77806897 2.99985882,7.91689655 2.99985882,8.08841379 C2.99985882,8.25993103 3.14216471,8.39875862 3.31750588,8.39875862 L10.0939765,8.39875862 C10.2693176,8.39875862 10.4116235,8.25993103 10.4116235,8.08841379 C10.4116235,7.91689655 10.2693176,7.77806897 10.0939765,7.77806897 L10.0939765,7.77806897 Z" id="Shape"></path>
                </g>
            </g>
        </g>
    </g>
</svg>