<?xml version="1.0" encoding="UTF-8" standalone="no"?>
<svg width="19px" height="15px" viewBox="0 0 19 15" version="1.1" xmlns="http://www.w3.org/2000/svg" xmlns:xlink="http://www.w3.org/1999/xlink" xmlns:sketch="http://www.bohemiancoding.com/sketch/ns">
    <!-- Generator: Sketch 3.0.4 (8054) - http://www.bohemiancoding.com/sketch -->
    <title>paper120</title>
    <desc>Created with Sketch.</desc>
    <defs></defs>
    <g id="Page-1" stroke="none" stroke-width="1" fill="none" fill-rule="evenodd" sketch:type="MSPage">
        <g id="tasks" sketch:type="MSLayerGroup" transform="translate(-207.000000, -274.000000)" fill="#000000">
            <g id="save" transform="translate(199.000000, 267.000000)" sketch:type="MSShapeGroup">
                <g id="paper120" transform="translate(8.000000, 7.000000)">
                    <path d="M18.7557143,0.446923077 C18.7535429,0.372076923 18.7323714,0.307461538 18.6965429,0.241769231 C18.6856857,0.220769231 18.6943714,0.194923077 18.6786286,0.175 C18.6710286,0.166923077 18.6607143,0.168 18.6531143,0.161538462 C18.6444286,0.150769231 18.6444286,0.137307692 18.6373714,0.128692308 C18.5673429,0.0603076923 18.4815714,0.0188461538 18.3903714,0.00269230769 C18.3806,0.00161538462 18.3757143,0.00646153846 18.3670286,0.00484615385 C18.2845143,-0.00538461538 18.1982,-0.000538461538 18.1211143,0.0333846154 L0.276314286,7.79692308 C0.095,7.87607692 -0.0162857143,8.06238462 0.00162857143,8.25892308 C0.0173714286,8.45546154 0.1596,8.61969231 0.354485714,8.66653846 L4.39117143,9.63684615 L6.3536,13.79 C6.36717143,13.8169231 6.39268571,13.8303846 6.41114286,13.8535385 C6.41982857,13.8680769 6.4144,13.8863846 6.42688571,13.8993077 C6.4448,13.9219231 6.47357143,13.9326923 6.49691429,13.9499231 C6.51482857,13.965 6.53057143,13.9800769 6.55445714,13.9913846 C6.62448571,14.0296154 6.69668571,14.0554615 6.77485714,14.0554615 C6.79277143,14.0554615 6.80851429,14.0543846 6.82697143,14.0522308 C6.91491429,14.0425385 6.98928571,14.0010769 7.05497143,13.9504615 C7.06257143,13.944 7.07505714,13.9472308 7.08374286,13.9402308 L10.1764,11.2339231 L13.2364857,12.2295385 C13.4644857,12.3000769 13.7136571,12.1923846 13.8092,11.9743077 L18.7361714,0.637538462 C18.7459429,0.610076923 18.7383429,0.579923077 18.7437714,0.550846154 C18.7535429,0.514230769 18.7557143,0.484615385 18.7557143,0.446923077 L18.7557143,0.446923077 Z M7.2808,9.56092308 C7.27211429,9.56684615 7.27537143,9.57815385 7.26722857,9.58461538 C7.20588571,9.64707692 7.15377143,9.71923077 7.13477143,9.80753846 L6.61417143,12.1676154 L5.3124,9.40853846 L13.3461429,4.21453846 L7.2808,9.56092308 L7.2808,9.56092308 Z M13.3271429,3.12523077 L4.63328571,8.74515385 L1.91031429,8.09146154 L13.3271429,3.12523077 L13.3271429,3.12523077 Z M7.53214286,12.3189231 L7.93168571,10.5032308 L9.15202857,10.9000769 L7.53214286,12.3189231 L7.53214286,12.3189231 Z M13.1246571,11.2226154 L8.50168571,9.71761538 L17.0554857,2.177 L13.1246571,11.2226154 L13.1246571,11.2226154 Z" id="Shape"></path>
                </g>
            </g>
        </g>
    </g>
</svg>