<?xml version="1.0" encoding="UTF-8" standalone="no"?>
<svg width="26px" height="17px" viewBox="0 0 26 17" version="1.1" xmlns="http://www.w3.org/2000/svg" xmlns:xlink="http://www.w3.org/1999/xlink" xmlns:sketch="http://www.bohemiancoding.com/sketch/ns">
    <!-- Generator: Sketch 3.0.4 (8054) - http://www.bohemiancoding.com/sketch -->
    <title>list1</title>
    <desc>Created with Sketch.</desc>
    <defs></defs>
    <g id="Page-1" stroke="none" stroke-width="1" fill="none" fill-rule="evenodd" sketch:type="MSPage">
        <g id="buttons" sketch:type="MSLayerGroup" transform="translate(-170.000000, -50.000000)" fill="#000000">
            <g id="undo-+-redo-+-list" transform="translate(165.000000, 44.000000)" sketch:type="MSShapeGroup">
                <g id="list">
                    <g id="list1" transform="translate(5.164557, 6.000000)">
                        <g id="Group">
                            <ellipse id="Oval" cx="2.73920354" cy="2.08923585" rx="2.73920354" ry="2.08923585"></ellipse>
                            <ellipse id="Oval" cx="2.73920354" cy="8.50433019" rx="2.73920354" ry="2.08923585"></ellipse>
                            <ellipse id="Oval" cx="2.73920354" cy="14.9194245" rx="2.73920354" ry="2.08923585"></ellipse>
                            <g transform="translate(7.639855, 0.267296)" id="Shape">
                                <path d="M16.5262687,-0.0133647799 L0.336223725,-0.0133647799 C0.142984448,-0.0133647799 -0.0142283544,0.106544025 -0.0142283544,0.253930818 L-0.0142283544,3.38128931 C-0.0142283544,3.5286761 0.142984448,3.64858491 0.336223725,3.64858491 L16.5262687,3.64858491 C16.719508,3.64858491 16.8767208,3.5286761 16.8767208,3.38128931 L16.8767208,0.253930818 C16.8767208,0.106544025 16.719508,-0.0133647799 16.5262687,-0.0133647799 L16.5262687,-0.0133647799 Z"></path>
                                <path d="M16.5262687,6.40172956 L0.336223725,6.40172956 C0.142984448,6.40172956 -0.0142283544,6.52163836 -0.0142283544,6.66902516 L-0.0142283544,9.79638365 C-0.0142283544,9.94377044 0.142984448,10.0636792 0.336223725,10.0636792 L16.5262687,10.0636792 C16.719508,10.0636792 16.8767208,9.94377044 16.8767208,9.79638365 L16.8767208,6.66902516 C16.8767208,6.52163836 16.719508,6.40172956 16.5262687,6.40172956 L16.5262687,6.40172956 Z"></path>
                                <path d="M16.5262687,12.8168239 L0.336223725,12.8168239 C0.142984448,12.8168239 -0.0142283544,12.9367327 -0.0142283544,13.0841195 L-0.0142283544,16.211478 C-0.0142283544,16.3588648 0.142984448,16.4787736 0.336223725,16.4787736 L16.5262687,16.4787736 C16.719508,16.4787736 16.8767208,16.3588648 16.8767208,16.211478 L16.8767208,13.0841195 C16.8767208,12.9367327 16.719508,12.8168239 16.5262687,12.8168239 L16.5262687,12.8168239 Z"></path>
                            </g>
                        </g>
                    </g>
                </g>
            </g>
        </g>
    </g>
</svg>