<?xml version="1.0" encoding="UTF-8" standalone="no"?>
<svg width="19px" height="19px" viewBox="0 0 19 19" version="1.1" xmlns="http://www.w3.org/2000/svg" xmlns:xlink="http://www.w3.org/1999/xlink" xmlns:sketch="http://www.bohemiancoding.com/sketch/ns">
    <!-- Generator: Sketch 3.0.4 (8054) - http://www.bohemiancoding.com/sketch -->
    <title>person280</title>
    <desc>Created with Sketch.</desc>
    <defs></defs>
    <g id="Page-1" stroke="none" stroke-width="1" fill="none" fill-rule="evenodd" sketch:type="MSPage">
        <g id="tasks" sketch:type="MSLayerGroup" transform="translate(-19.000000, -271.000000)" fill="#000000">
            <g id="reset" transform="translate(13.000000, 267.000000)" sketch:type="MSShapeGroup">
                <g id="person280" transform="translate(6.000000, 4.000000)">
                    <path d="M6.01666667,16.8947368 L6.01666667,11.3684211 L0.633333333,11.3684211 L0.633333333,16.8947368 C0.633333333,17.2436842 1.07508333,17.6842105 1.425,17.6842105 L5.54166667,17.6842105 C5.89158333,17.6842105 6.01666667,17.2436842 6.01666667,16.8947368 L6.01666667,16.8947368 Z M2.21666667,16.2631579 C2.21666667,16.3503158 2.14573333,16.4210526 2.05833333,16.4210526 C1.97093333,16.4210526 1.9,16.3503158 1.9,16.2631579 L1.9,12.1578947 C1.9,12.0707368 1.97093333,12 2.05833333,12 C2.14573333,12 2.21666667,12.0707368 2.21666667,12.1578947 L2.21666667,16.2631579 L2.21666667,16.2631579 Z M3.48333333,16.2631579 C3.48333333,16.3503158 3.4124,16.4210526 3.325,16.4210526 C3.2376,16.4210526 3.16666667,16.3503158 3.16666667,16.2631579 L3.16666667,12.1578947 C3.16666667,12.0707368 3.2376,12 3.325,12 C3.4124,12 3.48333333,12.0707368 3.48333333,12.1578947 L3.48333333,16.2631579 L3.48333333,16.2631579 Z M4.75,16.2631579 C4.75,16.3503158 4.67906667,16.4210526 4.59166667,16.4210526 C4.50426667,16.4210526 4.43333333,16.3503158 4.43333333,16.2631579 L4.43333333,12.1578947 C4.43333333,12.0707368 4.50426667,12 4.59166667,12 C4.67906667,12 4.75,12.0707368 4.75,12.1578947 L4.75,16.2631579 L4.75,16.2631579 Z" id="Shape"></path>
                    <path d="M0.633333333,10.7368421 L6.01666667,10.7368421 L6.01666667,10.1052632 L6.65,10.1052632 L6.65,9.47368421 L4.75,9.47368421 C4.75,9.12473684 4.5239,8.84210526 4.24523333,8.84210526 L2.5631,8.84210526 C2.28443333,8.84210526 2.05833333,9.12473684 2.05833333,9.47368421 L0,9.47368421 L0,10.1052632 L0.633333333,10.1052632 L0.633333333,10.7368421 L0.633333333,10.7368421 Z" id="Shape"></path>
                    <path d="M11.8224333,6.00915789 C12.2847667,10.5748421 8.07658333,17.5847368 8.07658333,17.5847368 C12.8861167,15.0018947 13.6793667,10.7368421 13.6793667,10.7368421 C15.08125,12.9322105 15.1521833,18.2763158 15.1521833,18.2763158 C17.83435,11.8661053 15.1521833,5.82473684 15.1521833,5.82473684 L19.0367333,7.43873684 C18.3894667,4.99452632 14.3659,3.28831579 14.3659,3.28831579 C10.7125167,4.94842105 6.08791667,4.764 6.08791667,4.764 C8.58515,7.16210526 11.8224333,6.00915789 11.8224333,6.00915789 L11.8224333,6.00915789 Z" id="Shape"></path>
                    <ellipse id="Oval" cx="12.2002167" cy="1.42957895" rx="1.43355" ry="1.42957895"></ellipse>
                    <path d="M3.12708333,7.26315789 C3.325,7.18421053 4.0375,6.82894737 4.07961667,7.26315789 C4.12173333,7.69736842 4.47291667,7.57894737 4.71041667,7.26315789 C4.94791667,6.94736842 4.82916667,6.43421053 5.10625,6.47368421 C5.38333333,6.51315789 5.62083333,6.11842105 5.7,5.75589474 C5.77916667,5.39336842 4.94791667,5.13157895 4.59166667,5.04726316 C4.23541667,4.96294737 3.91875,5.48715789 3.68125,5.48715789 C3.44375,5.48715789 3.0875,4.81578947 2.85,5.13157895 C2.6125,5.44736842 2.45416667,6.47368421 2.45416667,6.47368421 C2.09791667,6.27631579 1.74166667,6.71052632 1.62291667,7.02631579 C1.50416667,7.34210526 2.92916667,7.34210526 3.12708333,7.26315789 L3.12708333,7.26315789 Z" id="Shape"></path>
                </g>
            </g>
        </g>
    </g>
</svg>