<?xml version="1.0" encoding="UTF-8" standalone="no"?>
<svg width="12px" height="14px" viewBox="0 0 12 14" version="1.1" xmlns="http://www.w3.org/2000/svg" xmlns:xlink="http://www.w3.org/1999/xlink" xmlns:sketch="http://www.bohemiancoding.com/sketch/ns">
    <!-- Generator: Sketch 3.0.4 (8054) - http://www.bohemiancoding.com/sketch -->
    <title>recycling10 3</title>
    <desc>Created with Sketch.</desc>
    <defs></defs>
    <g id="Page-1" stroke="none" stroke-width="1" fill="none" fill-rule="evenodd" sketch:type="MSPage">
        <g id="tasks" sketch:type="MSLayerGroup" transform="translate(-341.000000, -71.000000)" fill="#000000">
            <g id="row2" transform="translate(11.000000, 70.000000)" sketch:type="MSShapeGroup">
                <g id="recycling10-3" transform="translate(330.000000, 1.000000)">
                    <g id="_x34__19_">
                        <path d="M8.30769231,12.25 C8.56246154,12.25 8.76923077,12.054 8.76923077,11.8125 L8.76923077,6.5625 C8.76923077,6.321 8.56246154,6.125 8.30769231,6.125 C8.05292308,6.125 7.84615385,6.321 7.84615385,6.5625 L7.84615385,11.8125 C7.84615385,12.054 8.05292308,12.25 8.30769231,12.25 L8.30769231,12.25 Z M11.0769231,1.75 L8.30769231,1.75 L8.30769231,0.875 C8.30769231,0.3915625 7.89461538,0 7.38461538,0 L4.61538462,0 C4.10538462,0 3.69230769,0.3915625 3.69230769,0.875 L3.69230769,1.75 L0.923076923,1.75 C0.413076923,1.75 0,2.1415625 0,2.625 L0,3.5 C0,3.983 0.413076923,4.375 0.923076923,4.375 L0.923076923,12.25 C0.923076923,13.2164375 1.74969231,14 2.76923077,14 L9.23076923,14 C10.2503077,14 11.0769231,13.2164375 11.0769231,12.25 L11.0769231,4.375 C11.5869231,4.375 12,3.983 12,3.5 L12,2.625 C12,2.1415625 11.5869231,1.75 11.0769231,1.75 L11.0769231,1.75 Z M4.61538462,1.3125 C4.61538462,1.071 4.82215385,0.875 5.07692308,0.875 L6.92307692,0.875 C7.17784615,0.875 7.38461538,1.071 7.38461538,1.3125 L7.38461538,1.75 L4.61538462,1.75 L4.61538462,1.3125 L4.61538462,1.3125 Z M10.1538462,12.25 C10.1538462,12.733 9.74076923,13.125 9.23076923,13.125 L2.76923077,13.125 C2.25923077,13.125 1.84615385,12.733 1.84615385,12.25 L1.84615385,4.375 L10.1538462,4.375 L10.1538462,12.25 L10.1538462,12.25 Z M10.6153846,3.5 L1.38461538,3.5 C1.12984615,3.5 0.923076923,3.304 0.923076923,3.0625 C0.923076923,2.821 1.12984615,2.625 1.38461538,2.625 L10.6153846,2.625 C10.8701538,2.625 11.0769231,2.821 11.0769231,3.0625 C11.0769231,3.304 10.8701538,3.5 10.6153846,3.5 L10.6153846,3.5 Z M3.69230769,12.25 C3.94707692,12.25 4.15384615,12.054 4.15384615,11.8125 L4.15384615,6.5625 C4.15384615,6.321 3.94707692,6.125 3.69230769,6.125 C3.43753846,6.125 3.23076923,6.321 3.23076923,6.5625 L3.23076923,11.8125 C3.23076923,12.054 3.43753846,12.25 3.69230769,12.25 L3.69230769,12.25 Z M6,12.25 C6.25476923,12.25 6.46153846,12.054 6.46153846,11.8125 L6.46153846,6.5625 C6.46153846,6.321 6.25476923,6.125 6,6.125 C5.74523077,6.125 5.53846154,6.321 5.53846154,6.5625 L5.53846154,11.8125 C5.53846154,12.054 5.74523077,12.25 6,12.25 L6,12.25 Z" id="Shape"></path>
                    </g>
                </g>
            </g>
        </g>
    </g>
</svg>