<?xml version="1.0" encoding="UTF-8" standalone="no"?>
<svg width="16px" height="20px" viewBox="0 0 16 20" version="1.1" xmlns="http://www.w3.org/2000/svg" xmlns:xlink="http://www.w3.org/1999/xlink" xmlns:sketch="http://www.bohemiancoding.com/sketch/ns">
    <!-- Generator: Sketch 3.0.4 (8054) - http://www.bohemiancoding.com/sketch -->
    <title>undo</title>
    <desc>Created with Sketch.</desc>
    <defs></defs>
    <g id="Page-1" stroke="none" stroke-width="1" fill="none" fill-rule="evenodd" sketch:type="MSPage">
        <g id="buttons" sketch:type="MSLayerGroup" transform="translate(-325.000000, -48.000000)" fill="#000000">
            <g id="undo-+-redo-+-list" transform="translate(165.000000, 44.000000)" sketch:type="MSShapeGroup">
                <g id="redo" transform="translate(154.000000, 1.000000)">
                    <g id="undo" transform="translate(14.000000, 14.000000) scale(-1, 1) translate(-14.000000, -14.000000) translate(6.000000, 4.000000)">
                        <path d="M8,3 L8,-0.5 L3,4.5 L8,9.5 L8,5 C11.3,5 14,7.7 14,11 C14,14.3 11.3,17 8,17 C4.7,17 2,14.3 2,11 L0,11 C0,15.4 3.6,19 8,19 C12.4,19 16,15.4 16,11 C16,6.6 12.4,3 8,3 L8,3 Z" id="Shape"></path>
                    </g>
                </g>
            </g>
        </g>
    </g>
</svg>