<?xml version="1.0" encoding="UTF-8" standalone="no"?>
<svg width="18px" height="19px" viewBox="0 0 18 19" version="1.1" xmlns="http://www.w3.org/2000/svg" xmlns:xlink="http://www.w3.org/1999/xlink" xmlns:sketch="http://www.bohemiancoding.com/sketch/ns">
    <!-- Generator: Sketch 3.0.4 (8054) - http://www.bohemiancoding.com/sketch -->
    <title>refresh57</title>
    <desc>Created with Sketch.</desc>
    <defs></defs>
    <g id="Page-1" stroke="none" stroke-width="1" fill="none" fill-rule="evenodd" sketch:type="MSPage">
        <g id="buttons" sketch:type="MSLayerGroup" transform="translate(-5.000000, -49.000000)" fill="#000000">
            <g id="refresh" transform="translate(0.000000, 44.000000)" sketch:type="MSShapeGroup">
                <g id="refresh57" transform="translate(5.000000, 5.000000)">
                    <g id="Group">
                        <path d="M1.54898901,7.92864549 C2.16866374,7.92864549 2.7284044,7.56246721 2.9681011,6.99990369 C3.95778462,4.67925615 6.28492747,3.04377664 8.9979033,3.04377664 C10.4931692,3.04377664 11.8640176,3.54817213 12.9630857,4.38475615 L12.1016176,4.5160041 C11.8074066,4.56089549 11.5785099,4.79064754 11.5385934,5.08102049 C11.4986374,5.3712377 11.6575912,5.65281148 11.9289363,5.77280738 L16.6661407,7.87028279 C16.8737934,7.96205123 17.1143604,7.94441393 17.3057538,7.8233668 C17.4968308,7.702125 17.6129011,7.49405943 17.614167,7.27018648 L17.6387341,2.13306148 C17.6403956,1.84081967 17.4468659,1.58237295 17.1630593,1.49718443 C16.8788176,1.4119959 16.5717099,1.5201168 16.4072967,1.7633791 L15.7543516,2.72914754 C14.0134945,1.04258607 11.6280791,0 8.9979033,0 C5.00981538,0 1.58103297,2.39688115 0.118641758,5.80356557 C-0.0844615385,6.2757623 -0.0332703297,6.81644467 0.254294505,7.2436332 C0.541859341,7.67097746 1.02793846,7.92864549 1.54898901,7.92864549 L1.54898901,7.92864549 Z" id="Shape"></path>
                        <path d="M17.7415516,11.7264262 C17.4539473,11.299043 16.9678286,11.0414139 16.4468176,11.0414139 C15.8271429,11.0414139 15.2674022,11.4075922 15.0277055,11.9701557 C14.038022,14.2908033 11.7108396,15.9262828 8.9979033,15.9262828 C7.5025978,15.9262828 6.13174945,15.4218873 5.03268132,14.5853033 L5.89414945,14.4540943 C6.18836044,14.4092029 6.41725714,14.1794508 6.45721319,13.8890389 C6.49712967,13.5988607 6.33821538,13.317248 6.06687033,13.197252 L1.32966593,11.0997766 C1.12197363,11.0080082 0.881446154,11.0256066 0.690013187,11.1466926 C0.498975824,11.2679344 0.382865934,11.476 0.38163956,11.699834 L0.357032967,16.836959 C0.355371429,17.1292008 0.548901099,17.3876475 0.832707692,17.4728361 C1.11694945,17.5580246 1.42405714,17.4499037 1.58847033,17.2066025 L2.24141538,16.240834 C3.98223297,17.9274734 6.36768791,18.9700594 8.99786374,18.9700594 C12.9859912,18.9700594 16.4147341,16.5732172 17.8770857,13.1665328 C18.0802681,12.6942971 18.0290769,12.1536537 17.7415516,11.7264262 L17.7415516,11.7264262 Z" id="Shape"></path>
                    </g>
                </g>
            </g>
        </g>
    </g>
</svg>