<?xml version="1.0" encoding="UTF-8" standalone="no"?>
<svg width="17px" height="21px" viewBox="0 0 17 21" version="1.1" xmlns="http://www.w3.org/2000/svg" xmlns:xlink="http://www.w3.org/1999/xlink" xmlns:sketch="http://www.bohemiancoding.com/sketch/ns">
    <!-- Generator: Sketch 3.0.4 (8054) - http://www.bohemiancoding.com/sketch -->
    <title>computer10</title>
    <desc>Created with Sketch.</desc>
    <defs></defs>
    <g id="Page-1" stroke="none" stroke-width="1" fill="none" fill-rule="evenodd" sketch:type="MSPage">
        <g id="buttons" sketch:type="MSLayerGroup" transform="translate(-60.000000, -2.000000)" fill="#050505">
            <g id="original" transform="translate(53.000000, 0.000000)" sketch:type="MSShapeGroup">
                <g id="computer10" transform="translate(8.000000, 3.000000)">
                    <path d="M9.52421053,1.06090909 L9.52421053,18.9109091 L15.4223158,15.3454545 L15.4223158,3.30363636 L9.52421053,1.06090909 L9.52421053,1.06090909 Z M15.0231579,2.36727273 C14.7014737,2.23727273 9.12168421,-0.0245454545 9.12168421,-0.0245454545 C9.12168421,-0.0245454545 9.46863158,0.212727273 9.46863158,0.627272727 L15.3667368,2.94909091 C15.3667368,2.94909091 15.3423158,2.49727273 15.0231579,2.36727273 L15.0231579,2.36727273 Z M8.27621053,-0.131818182 L0.807578947,-0.131818182 C0.215578947,-0.131818182 -0.264421053,0.387272727 -0.264421053,1.02545455 L-0.264421053,18.6409091 C-0.264421053,19.2790909 0.216421053,19.7990909 0.807578947,19.7990909 L8.27621053,19.7990909 C8.86736842,19.7990909 9.34736842,19.2790909 9.34736842,18.6409091 L9.34736842,1.02545455 C9.34821053,0.387272727 8.86736842,-0.131818182 8.27621053,-0.131818182 L8.27621053,-0.131818182 Z M8.79242105,18.6418182 C8.79242105,18.95 8.56252632,19.2 8.27621053,19.2 L0.807578947,19.2 C0.522105263,19.2 0.290526316,18.95 0.290526316,18.6418182 L0.290526316,1.02545455 C0.290526316,0.717272727 0.522105263,0.467272727 0.807578947,0.467272727 L8.27621053,0.467272727 C8.56252632,0.467272727 8.79242105,0.717272727 8.79242105,1.02545455 L8.79242105,18.6418182 L8.79242105,18.6418182 Z M1.67073684,4.35454545 L7.45263158,4.35454545 C7.65642105,4.35454545 7.82147368,4.17636364 7.82147368,3.95727273 L7.82147368,1.85636364 C7.82147368,1.63727273 7.65642105,1.45818182 7.45263158,1.45818182 L1.67073684,1.45818182 C1.46778947,1.45818182 1.30273684,1.63727273 1.30273684,1.85636364 L1.30273684,3.95727273 C1.30273684,4.17636364 1.46778947,4.35454545 1.67073684,4.35454545 L1.67073684,4.35454545 Z M6.34357895,3.67454545 L7.44421053,3.67454545 L7.44421053,3.95090909 L6.34357895,3.95090909 L6.34357895,3.67454545 L6.34357895,3.67454545 Z M1.67073684,8.49181818 L7.45263158,8.49181818 C7.65642105,8.49181818 7.82147368,8.31363636 7.82147368,8.09454545 L7.82147368,5.99363636 C7.82147368,5.77454545 7.65642105,5.59545455 7.45263158,5.59545455 L1.67073684,5.59545455 C1.46778947,5.59545455 1.30273684,5.77363636 1.30273684,5.99363636 L1.30273684,8.09454545 C1.30273684,8.31454545 1.46778947,8.49181818 1.67073684,8.49181818 L1.67073684,8.49181818 Z M6.24168421,7.93 L7.34231579,7.93 L7.34231579,8.20636364 L6.24168421,8.20636364 L6.24168421,7.93 L6.24168421,7.93 Z M4.57263158,15.4890909 C3.94189474,15.4890909 3.42905263,16.0427273 3.42905263,16.7227273 C3.42905263,17.4045455 3.94189474,17.9572727 4.57263158,17.9572727 C5.20336842,17.9572727 5.71621053,17.4045455 5.71621053,16.7227273 C5.71621053,16.0427273 5.20336842,15.4890909 4.57263158,15.4890909 L4.57263158,15.4890909 Z M4.57263158,17.3590909 C4.24842105,17.3590909 3.98484211,17.0745455 3.98484211,16.7236364 C3.98484211,16.3745455 4.24842105,16.09 4.57263158,16.09 C4.89684211,16.09 5.16042105,16.3745455 5.16042105,16.7236364 C5.16042105,17.0736364 4.89684211,17.3590909 4.57263158,17.3590909 L4.57263158,17.3590909 Z M1.29347368,13.4063636 L7.81221053,13.4063636 L7.81221053,14.0136364 L1.29347368,14.0136364 L1.29347368,13.4063636 L1.29347368,13.4063636 Z M1.31368421,11.8754545 L7.83157895,11.8754545 L7.83157895,12.4818182 L1.31368421,12.4818182 L1.31368421,11.8754545 L1.31368421,11.8754545 Z M1.31368421,10.2872727 L7.83157895,10.2872727 L7.83157895,10.8936364 L1.31368421,10.8936364 L1.31368421,10.2872727 L1.31368421,10.2872727 Z" id="Shape"></path>
                </g>
            </g>
        </g>
    </g>
</svg>