<?xml version="1.0" encoding="UTF-8" standalone="no"?>
<svg width="21px" height="19px" viewBox="0 0 21 19" version="1.1" xmlns="http://www.w3.org/2000/svg" xmlns:xlink="http://www.w3.org/1999/xlink" xmlns:sketch="http://www.bohemiancoding.com/sketch/ns">
    <!-- Generator: Sketch 3.0.4 (8054) - http://www.bohemiancoding.com/sketch -->
    <title>male157</title>
    <desc>Created with Sketch.</desc>
    <defs></defs>
    <g id="Page-1" stroke="none" stroke-width="1" fill="none" fill-rule="evenodd" sketch:type="MSPage">
        <g id="buttons" sketch:type="MSLayerGroup" transform="translate(-442.000000, -49.000000)" fill="#000000">
            <g id="user" transform="translate(435.000000, 45.000000)" sketch:type="MSShapeGroup">
                <g id="male157" transform="translate(7.000000, 4.000000)">
                    <path d="M20.2197333,15.8973 C20.216,14.986725 19.5885667,14.964875 18.8388667,14.6596875 L15.3388667,13.2327875 C15.2779667,13.2085625 15.218,13.182675 15.1587333,13.1558375 L15.1587333,13.1544125 C14.5364333,12.86775 13.9871667,12.46875 13.7858,12.1882625 L13.7778667,12.1792375 L13.7755333,12.174725 C13.7641,12.156675 13.7517333,12.13815 13.741,12.1203375 L13.7330667,12.1056125 L13.7316667,12.1018125 L13.7244333,12.0927875 L13.7244333,12.0923125 C13.6311,11.949575 13.5368333,11.8856875 13.4572667,11.9132375 L13.4523667,11.915375 L13.4500333,11.9160875 L13.4493333,11.9165625 L13.4449,11.9184625 L13.4418667,11.919175 L13.4374333,11.9232125 C13.3427,11.973325 13.3616,11.9184625 13.3231,11.8123 C13.2283667,11.552 13.0720333,11.0561 13.0484667,10.9831875 C13.0120667,10.8473375 12.9143,11.19765 12.9367,10.8197875 L12.9766,10.136025 C13.041,10.0654875 13.0930333,10.0080125 13.1285,9.96835 C13.3564667,9.702825 13.3723333,9.001725 13.4866667,8.830725 C13.601,8.6594875 13.8299,8.622675 14.0583333,7.8268125 C14.287,7.0302375 14.5658333,5.89285 14.2718333,5.874325 C14.1995,5.8693375 14.1178333,5.917075 14.0331333,5.9928375 C14.0847,5.700475 14.1936667,5.0371375 14.2184,4.54765 C14.2510667,3.9028375 14.1460667,2.249125 13.7858,1.6432625 C13.5606333,1.26445 13.1061,0.8892 12.6532,0.5966 C12.3818333,0.420375 12.1111667,0.2747875 11.8897333,0.1759875 C11.2301,-0.1218375 9.1504,0.0149625 8.4462,0.1759875 C7.64376667,0.3588625 7.08143333,0.8713875 6.7221,1.4774875 C6.36323333,2.0843 6.20386667,3.903075 6.23513333,4.5478875 C6.2503,4.8371625 6.4204,5.325225 6.46356667,5.62305 C6.48806667,5.778375 6.5107,5.7795625 6.52983333,5.8907125 C6.49973333,5.879075 6.4708,5.8726625 6.44373333,5.8745625 C6.1495,5.8930875 6.42763333,7.030475 6.65606667,7.82705 C6.8852,8.6229125 7.11293333,8.659725 7.22773333,8.8309625 C7.34206667,9.0019625 7.35816667,9.7030625 7.58753333,9.9685875 C7.6237,10.010625 7.67876667,10.0719 7.74713333,10.146 L7.79076667,10.70365 L7.86776667,11.0140625 C7.83253333,10.9247625 7.763,10.8672875 7.73033333,10.9836625 C7.63186667,11.2881375 7.5334,11.59285 7.43493333,11.897325 C7.42466667,11.8823625 7.40856667,11.872625 7.39013333,11.8714375 C7.2947,11.7857 7.1666,11.860275 7.04993333,12.0581125 C6.87703333,12.351425 6.30466667,12.773225 5.64083333,13.0784125 L5.6315,13.1149875 L5.62216667,13.1510875 L5.61866667,13.165575 C5.56616667,13.189325 5.5139,13.2118875 5.46046667,13.2332625 L1.96023333,14.6601625 C1.21146667,14.96535 0.583333333,14.9872 0.579366667,15.897775 L0,19 L21,19 L20.2197333,15.8973 L20.2197333,15.8973 Z" id="vCard"></path>
                </g>
            </g>
        </g>
    </g>
</svg>