<?xml version="1.0" encoding="iso-8859-1"?>
<!-- Generator: Adobe Illustrator 18.1.1, SVG Export Plug-In . SVG Version: 6.00 Build 0)  -->
<svg version="1.1" id="Capa_1" xmlns="http://www.w3.org/2000/svg" xmlns:xlink="http://www.w3.org/1999/xlink" x="0px" y="0px"
	 viewBox="0 0 23.422 23.422" style="enable-background:new 0 0 23.422 23.422;" xml:space="preserve">
<g>
	<g>
		<rect x="3.373" y="11.791" style="fill:#010002;" width="2.071" height="2.072"/>
		<rect x="3.373" y="15.067" style="fill:#010002;" width="2.071" height="2.07"/>
		<rect x="6.844" y="8.513" style="fill:#010002;" width="2.071" height="2.071"/>
		<rect x="6.844" y="11.791" style="fill:#010002;" width="2.071" height="2.072"/>
		<rect x="6.844" y="15.067" style="fill:#010002;" width="2.071" height="2.07"/>
		<path style="fill:#010002;" d="M19.278,8.811V2.769c0-0.802-0.655-1.457-1.457-1.457H1.457C0.655,1.312,0,1.967,0,2.769v16.363
			c0,0.802,0.655,1.457,1.457,1.457h10.681c1.188,0.951,2.693,1.522,4.333,1.522c3.838,0,6.951-3.11,6.951-6.948
			C23.421,12.326,21.716,9.89,19.278,8.811z M6.315,2.743h6.642V4.46H6.315V2.743z M1.79,6.1h15.696v2.198
			c-0.332-0.049-0.67-0.083-1.016-0.083c-1.529,0-2.938,0.5-4.086,1.337v-1.04h-2.07v2.071h0.941
			c-1.075,1.223-1.731,2.823-1.731,4.58c0,1.254,0.337,2.427,0.917,3.442H1.79V6.1z M15.833,9.503c0-0.353,0.287-0.636,0.637-0.636
			c0.354,0,0.637,0.283,0.638,0.636c0,0.352-0.284,0.637-0.638,0.637C16.121,10.14,15.833,9.855,15.833,9.503z M11.448,15.164
			c0,0.353-0.284,0.639-0.638,0.639c-0.353,0-0.637-0.286-0.637-0.639s0.284-0.636,0.637-0.636S11.447,14.811,11.448,15.164z
			 M16.47,21.462c-0.35,0-0.637-0.284-0.637-0.635c0-0.354,0.287-0.64,0.637-0.64c0.354,0,0.637,0.285,0.638,0.64
			C17.108,21.177,16.824,21.462,16.47,21.462z M20.328,12.291l-2.667,2.663c0.018,0.082,0.05,0.158,0.05,0.245
			c0,0.691-0.561,1.252-1.252,1.252c-0.667,0-1.201-0.527-1.237-1.187l-2.833-2.201c-0.245-0.192-0.303-0.53-0.125-0.756
			c0.177-0.229,0.521-0.257,0.766-0.065l2.593,2.018c0.224-0.21,0.52-0.344,0.849-0.344c0.218,0,0.412,0.07,0.59,0.168l2.527-2.53
			c0.236-0.235,0.593-0.258,0.793-0.055C20.583,11.701,20.56,12.055,20.328,12.291z M22.13,15.802c-0.352,0-0.637-0.286-0.637-0.639
			s0.285-0.636,0.637-0.636c0.353,0,0.639,0.283,0.639,0.636S22.484,15.802,22.13,15.802z"/>
	</g>
</g>
<g>
</g>
<g>
</g>
<g>
</g>
<g>
</g>
<g>
</g>
<g>
</g>
<g>
</g>
<g>
</g>
<g>
</g>
<g>
</g>
<g>
</g>
<g>
</g>
<g>
</g>
<g>
</g>
<g>
</g>
</svg>
